<svg id="Layer_1" data-name="Layer 1" xmlns="http://www.w3.org/2000/svg" viewBox="0 0 1189.233 95.9453">
  <path d="M1099.05078,45.5674q-26.28945-1.45095-52.6728-2.0781c20.1596-3.2734,43.4946-12.8613,47.4668-32.7192-20.2285-1.4458-49.9576,10.6821-54.771,32.5581q-31.0152-.66945-62.0904-.6167c23.2881-2.521,45.086-15.6265,56.8594-36.5601-26.7324-1.4834-67.7944,5.6416-70.6089,36.5879q-26.8308.0783-53.6499.3545c19.0879-8.1533,36.6177-24.9629,39.6387-43.0938-24.9927,4.4092-66.8213,13.0518-70.4805,43.355q-24.9543.18975-49.8315.209c-77.7647-.0635-156.28219-2.2432-234.29439.2798-78.0123-2.523-156.5303-.3433-234.2955-.2798q-24.8715.02055-49.82809-.209C306.8345,13.0518,265.002,4.4092,240.0098,0c3.0239,18.1309,20.5532,34.9405,39.6387,43.0938q-26.8104-.23445-53.6465-.3545C223.1841,11.793,182.1216,4.668,155.3892,6.1514c11.7764,20.9336,33.5747,34.0391,56.8604,36.5601q-31.0686-.00375-62.0884.6167c-4.8164-21.876-34.5425-34.0039-54.7735-32.5581,3.9746,19.8579,27.30961,29.4458,47.4668,32.7192q-26.38032.6555-52.6704,2.0781C65.2798,21.9053,23.9234,28.2994,0,49.2315c21.9493,14.6294,68.9214,25.0639,88.0288,3.5547q22.1712,1.25745,44.42437,1.9077C115.3467,59.2896,98.6861,68.6827,95.3877,85.1758c19.437,1.3882,47.6348-9.7529,54.086-30.0312q24.80565.561,49.6557.6377c-18.1318,5.2343-34.2129,17.0732-43.7402,34.0087,25.9766,1.4434,65.4912-5.2373,70.2881-34.0029q24.21975-.06585,48.4316-.2998c-16.8335,8.8184-31.372,24.0986-34.0991,40.457,24.2725-4.2851,64.4243-12.5561,70.0791-40.7793,18.80759-.1562,37.59329-.2768,56.33739-.2607,75.7471.0635,152.2119,2.1279,228.19-.3027,75.978,2.4306,152.44229.3662,228.19229.3027,18.7417-.0161,37.5298.1045,56.3379.2607,5.6543,28.2232,45.8037,36.4942,70.0762,40.7793-2.7271-16.3584-17.2632-31.6386-34.0967-40.457q24.2073.2103,48.4292.2998c4.7993,28.7656,44.3111,35.4463,70.2876,34.0029-9.5273-16.9355-25.6079-28.7744-43.7368-34.0087q24.84225-.09825,49.6523-.6377c6.4541,20.2783,34.6524,31.4194,54.0865,30.0312-3.2989-16.4931-19.9566-25.8862-37.0625-30.4819q22.2444-.6804,44.4214-1.9077c19.10742,21.5092,66.082,11.0747,88.02932-3.5547C1165.3091,28.2994,1123.95557,21.9053,1099.05078,45.5674Z"/>
</svg>
