<svg id="Layer_1" data-name="Layer 1" xmlns="http://www.w3.org/2000/svg" viewBox="0 0 368.14746 36.64355">
  <g>
    <path d="M18.15674,2.51953V8.90332a.52591.52591,0,0,1-.54444.54492.52058.52058,0,0,1-.519-.54492V8.30225c0-2.4834-1.47607-4.71875-4.42773-4.71875H8.54834a1.08184,1.08184,0,0,0-1.14209,1.019v8.73682H9.0708c2.71094,0,3.669-.96582,3.669-3.21387V9.96436a.54492.54492,0,1,1,1.08984,0v7.86572a.54757.54757,0,1,1-1.08984-.07862v-.17138c0-2.10742-.90577-3.12549-3.669-3.12549H7.40625V24.147a1.08337,1.08337,0,0,0,1.1416,1.02979h1.63867a.52591.52591,0,0,1,.54493.54443.52058.52058,0,0,1-.54493.519H.5498a.5263.5263,0,0,1-.54492-.54492.5202.5202,0,0,1,.54492-.51855h.65284a1.077,1.077,0,0,0,1.1416-1.019L2.33936,4.61279A1.07958,1.07958,0,0,0,1.19775,3.5835H.54492A.52058.52058,0,0,1,0,3.06445a.52631.52631,0,0,1,.54492-.54492Z" style="fill: #ee4343"/>
    <path d="M40.95068,25.17871a.51978.51978,0,0,1,.54444.51856.52551.52551,0,0,1-.54444.54443h-6.227V22.58887A6.46473,6.46473,0,0,1,28.65234,26.562c-3.0957,0-5.17236-1.85205-5.17236-5.3125V12.21826a1.13777,1.13777,0,0,0-1.14648-1.147h-.65284a.52058.52058,0,0,1-.54492-.519.52631.52631,0,0,1,.54492-.54493h6.22705V21.02051c0,2.50342,1.106,3.57324,2.61768,3.57324,2.68994,0,4.19824-2.99951,4.19824-6.60156V12.21777a1.13819,1.13819,0,0,0-1.147-1.147h-.65283a.521.521,0,0,1-.54541-.519.52669.52669,0,0,1,.54541-.54492h6.227V24.03027a1.1382,1.1382,0,0,0,1.147,1.147h.65283Z" style="fill: #ee4343"/>
    <path d="M63.83838,25.69629a.52551.52551,0,0,1-.54443.54443H55.26709a.5259.5259,0,0,1-.54492-.54443.52057.52057,0,0,1,.54492-.519h.65283a1.13779,1.13779,0,0,0,1.147-1.14649v-8.793c0-2.50341-1.166-3.57373-2.67773-3.57373-2.68945,0-4.41357,3-4.41357,6.60205v5.76465a1.13779,1.13779,0,0,0,1.147,1.14649h.65283a.52015.52015,0,0,1,.54443.519.5255.5255,0,0,1-.54443.54443H43.74854a.52591.52591,0,0,1-.54493-.54443.52058.52058,0,0,1,.54493-.519h.65283a1.13779,1.13779,0,0,0,1.147-1.14649v-11.813a1.13819,1.13819,0,0,0-1.147-1.147h-.65283a.52058.52058,0,0,1-.54493-.519.5263.5263,0,0,1,.54493-.54492h6.227V13.9209A6.91576,6.91576,0,0,1,56.2627,9.69629c3.09521,0,5.23144,1.85205,5.23144,5.313v9.021a1.1382,1.1382,0,0,0,1.147,1.147H63.294A.52015.52015,0,0,1,63.83838,25.69629Z" style="fill: #ee4343"/>
    <path d="M82.82422,17.22266c0,.707-.375.8833-1.17041.8833H70.45068c0,3.98291,1.61377,7.12939,5.29,7.12939a6.07243,6.07243,0,0,0,5.77442-3.98926c.1665-.39453.34277-.48291.54492-.48291.35254,0,.45068.26416.44043.5127a7.43668,7.43668,0,0,1-7.439,5.32715c-4.79492,0-9.16064-2.61719-9.16064-8.50684,0-4.80371,2.999-8.41943,8.76709-8.41943,5.38916,0,8.15576,3.10644,8.15576,7.54541ZM78.42529,17.147c-.10449-4.44385-1.46435-6.47412-3.9458-6.47412-2.33984,0-3.82226,2.38819-4.00586,6.47412Z" style="fill: #ee4343"/>
    <path d="M97.05664,9.69727a4.09816,4.09816,0,0,1,4.20264,4.22509c0,1.78955-1.083,3.56592-3.00342,3.56592a2.11559,2.11559,0,0,1-2.16211-2.126c0-1.56787,1.48682-1.99951,1.48682-3.02246,0-.62207-.644-1.10595-1.57373-1.10595-2.67237,0-4.23487,3.7832-4.23487,7.21728v5.57959a1.13738,1.13738,0,0,0,1.14649,1.14649h1.81738a.52629.52629,0,0,1,.54492.54492.52018.52018,0,0,1-.54492.51855H85.54443A.52551.52551,0,0,1,85,25.69629a.52015.52015,0,0,1,.54443-.519h.65332a1.13738,1.13738,0,0,0,1.14649-1.14649v-11.813a1.13778,1.13778,0,0,0-1.14649-1.147h-.65332A.52015.52015,0,0,1,85,10.55176a.5259.5259,0,0,1,.54443-.54492H91.772v3.96679c1.02442-2.84668,3.01367-4.27734,5.28467-4.27734Z" style="fill: #ee4343"/>
    <path d="M123.31152,25.6958a.5255.5255,0,0,1-.54443.54443H116.54V22.51318c-1.3335,2.646-3.23633,4.10987-6.17774,4.10987-4.41845,0-7.16552-3.69971-7.16552-8.49659,0-4.67431,2.73388-8.4497,7.16552-8.4497,3.124,0,4.94874,1.65576,6.17774,4.09326V10.00684h4.42725V24.03027a1.1382,1.1382,0,0,0,1.147,1.147h.65283A.51976.51976,0,0,1,123.31152,25.6958ZM111.626,25.25537c2.65136,0,4.99218-3.47217,4.99218-7.08789,0-3.814-2.44531-7.12305-4.99267-7.12305-2.33594,0-3.90576,1.6333-3.90576,7.11328,0,5.46387,1.56982,7.09766,3.90576,7.09766Z" style="fill: #ee4343"/>
    <path d="M133.56689,25.17676a.51978.51978,0,0,1,.54444.51855.52591.52591,0,0,1-.54444.54492H125.54a.52629.52629,0,0,1-.54492-.54492.52019.52019,0,0,1,.54492-.51855h.65283a1.13748,1.13748,0,0,0,1.14649-1.147V2.21045a1.13778,1.13778,0,0,0-1.14649-1.147H125.54a.52058.52058,0,0,1-.54492-.519A.5259.5259,0,0,1,125.54,0h6.227V24.03027a1.13789,1.13789,0,0,0,1.147,1.147h.65283Z" style="fill: #ee4343"/>
    <path d="M164.69873,9.48389c0,4.2832-3.231,7.53173-9.771,7.53173h-3.30664V24.147a1.08337,1.08337,0,0,0,1.14161,1.02979h1.56884a.5259.5259,0,0,1,.54492.54443.52057.52057,0,0,1-.54492.519h-9.56689a.52629.52629,0,0,1-.54492-.54492.52019.52019,0,0,1,.54492-.51855h.65283a1.077,1.077,0,0,0,1.1416-1.019L146.5542,4.61279a1.07958,1.07958,0,0,0-1.1416-1.02929h-.65283a.52059.52059,0,0,1-.54493-.519.52631.52631,0,0,1,.54493-.54492h10.16552c6.54,0,9.771,3.041,9.771,6.96436ZM153.811,15.95166c3.54589,0,5.42285-2.58057,5.42285-6.46777,0-3.27588-1.5166-5.90088-5.42285-5.90088h-1.04786a1.08216,1.08216,0,0,0-1.14209,1.019V15.95166Z" style="fill: #e5e7ea"/>
    <path d="M178.55957,9.69727a4.09817,4.09817,0,0,1,4.20264,4.22509c0,1.78955-1.083,3.56592-3.00342,3.56592a2.11559,2.11559,0,0,1-2.16211-2.126c0-1.56787,1.48682-1.99951,1.48682-3.02246,0-.62207-.644-1.10595-1.57373-1.10595-2.67237,0-4.23487,3.7832-4.23487,7.21728v5.57959a1.13738,1.13738,0,0,0,1.14649,1.14649h1.81738a.52629.52629,0,0,1,.54492.54492.52018.52018,0,0,1-.54492.51855h-9.19141a.52551.52551,0,0,1-.54443-.54443.52015.52015,0,0,1,.54443-.519h.65332a1.13738,1.13738,0,0,0,1.14649-1.14649v-11.813a1.13778,1.13778,0,0,0-1.14649-1.147h-.65332a.52015.52015,0,0,1-.54443-.519.5259.5259,0,0,1,.54443-.54492h6.22754v3.96679c1.02442-2.84668,3.01367-4.27734,5.28467-4.27734Z" style="fill: #e5e7ea"/>
    <path d="M193.49951,26.603c-5.439,0-8.80029-3.36524-8.80029-8.50733,0-4.46435,3.02246-8.41894,8.80078-8.41894,5.20459,0,8.77393,2.91211,8.77393,8.41943,0,5.14209-3.17872,8.50684-8.77393,8.50684Zm4.30322-8.45606c0-5.0625-1.60986-7.4497-4.30322-7.4497-2.6416,0-4.32959,2.3872-4.32959,7.4497,0,4.14112,1.25781,7.4502,4.26172,7.46045C196.30225,25.59717,197.80273,22.98145,197.80273,18.147Z" style="fill: #e5e7ea"/>
    <path d="M223.3418,10.00586v16.79c0,6.78955-4.41748,9.84765-10.14209,9.84765-4.25489,0-7.76807-2.21777-7.76807-5.62646a2.50676,2.50676,0,0,1,2.48877-2.70166,1.98758,1.98758,0,0,1,2.08691,2.08008c0,1.61767-1.23388,1.60742-1.23388,2.82763,0,1.044,1.59131,2.34717,4.12549,2.34717,3.52539,0,6.01513-2.39062,6.01513-7.12793v-5.9292c-1.333,2.646-3.23584,4.10987-6.17724,4.10987-4.41846,0-7.16553-3.69971-7.16553-8.49659,0-4.67431,2.73389-8.4497,7.16553-8.4497,3.124,0,4.94873,1.65576,6.17724,4.09326V10.00684Zm-9.34131,15.24853c2.65088,0,4.9917-3.47168,4.9917-7.0874,0-3.814-2.44483-7.123-4.99219-7.123-2.33594,0-3.90625,1.6333-3.90625,7.11328,0,5.46386,1.57031,7.09716,3.90625,7.09716Z" style="fill: #e5e7ea"/>
    <path d="M239.03809,9.69727a4.09816,4.09816,0,0,1,4.20263,4.22509c0,1.78955-1.083,3.56592-3.00342,3.56592a2.11558,2.11558,0,0,1-2.1621-2.126c0-1.56787,1.48681-1.99951,1.48681-3.02246,0-.62207-.644-1.10595-1.57373-1.10595-2.67236,0-4.23486,3.7832-4.23486,7.21728v5.57959a1.13737,1.13737,0,0,0,1.14648,1.14649h1.81739a.5263.5263,0,0,1,.54492.54492.52019.52019,0,0,1-.54492.51855h-9.19141a.5255.5255,0,0,1-.54443-.54443.52015.52015,0,0,1,.54443-.519h.65332a1.13737,1.13737,0,0,0,1.14648-1.14649v-11.813a1.13777,1.13777,0,0,0-1.14648-1.147h-.65332a.52015.52015,0,0,1-.54443-.519.5259.5259,0,0,1,.54443-.54492h6.22754v3.96679c1.02441-2.84668,3.01367-4.27734,5.28467-4.27734Z" style="fill: #e5e7ea"/>
    <path d="M265.293,25.6958a.5259.5259,0,0,1-.54492.54443h-6.22657V22.51318c-1.33349,2.646-3.23632,4.10987-6.17773,4.10987-4.41846,0-7.16553-3.69971-7.16553-8.49659,0-4.67431,2.73389-8.4497,7.16553-8.4497,3.124,0,4.94873,1.65576,6.17773,4.09326V10.00684h4.42676V24.03027a1.13861,1.13861,0,0,0,1.14746,1.147h.65235A.52019.52019,0,0,1,265.293,25.6958Zm-11.68555-.44043c2.65137,0,4.99219-3.47217,4.99219-7.08789,0-3.814-2.44531-7.12305-4.99268-7.12305-2.33593,0-3.90576,1.6333-3.90576,7.11328,0,5.46387,1.56983,7.09766,3.90576,7.09766Z" style="fill: #e5e7ea"/>
    <path d="M297.72168,25.17822a.52019.52019,0,0,1,.54492.51856.5259.5259,0,0,1-.54492.54443h-8.02637a.52591.52591,0,0,1-.54492-.54443.5202.5202,0,0,1,.54492-.51856h.65235a1.1383,1.1383,0,0,0,1.14746-1.147V15.082c0-2.34717-.9502-3.41748-2.46192-3.41748-2.68945,0-4.19726,3.00049-4.19726,6.60254v5.76416a1.13747,1.13747,0,0,0,1.14648,1.147h.65332a.51936.51936,0,0,1,.54395.51856.52512.52512,0,0,1-.54395.54443H278.6084a.5259.5259,0,0,1-.54492-.54443.52019.52019,0,0,1,.54492-.51856h.65332a1.13747,1.13747,0,0,0,1.14648-1.147V15.082c0-2.34717-.94922-3.41748-2.46093-3.41748-2.69043,0-4.19825,3.00049-4.19825,6.60254v5.76416a1.13748,1.13748,0,0,0,1.14649,1.147h.65332a.5202.5202,0,0,1,.54492.51856.52591.52591,0,0,1-.54492.54443h-8.02735a.52511.52511,0,0,1-.54394-.54443.51935.51935,0,0,1,.54394-.51856h.65332a1.13747,1.13747,0,0,0,1.14649-1.147V12.21875a1.13788,1.13788,0,0,0-1.14649-1.14746h-.65332a.51974.51974,0,0,1-.54394-.519.52551.52551,0,0,1,.54394-.54493H273.749v3.79346a6.59494,6.59494,0,0,1,6.07032-4.10351,4.50438,4.50438,0,0,1,4.91992,4.27246,6.65651,6.65651,0,0,1,6.167-4.27295c3.0957,0,5.01563,1.85205,5.01563,5.15625v9.17724a1.13778,1.13778,0,0,0,1.14648,1.147h.65332Z" style="fill: #e5e7ea"/>
    <path d="M330.69727,25.17822a.5202.5202,0,0,1,.54492.51856.52591.52591,0,0,1-.54492.54443h-8.02735a.52511.52511,0,0,1-.54394-.54443.51935.51935,0,0,1,.54394-.51856h.65332a1.13748,1.13748,0,0,0,1.14649-1.147V15.082c0-2.34717-.94922-3.41748-2.46094-3.41748-2.68945,0-4.19824,3.00049-4.19824,6.60254v5.76416a1.1383,1.1383,0,0,0,1.14746,1.147h.65234a.52019.52019,0,0,1,.54492.51856.5259.5259,0,0,1-.54492.54443H311.584a.52591.52591,0,0,1-.54492-.54443.5202.5202,0,0,1,.54492-.51856h.65235a1.1383,1.1383,0,0,0,1.14746-1.147V15.082c0-2.34717-.9502-3.41748-2.46191-3.41748-2.68946,0-4.19727,3.00049-4.19727,6.60254v5.76416a1.13747,1.13747,0,0,0,1.14648,1.147h.65332a.51936.51936,0,0,1,.54395.51856.52512.52512,0,0,1-.54395.54443h-8.02734a.5259.5259,0,0,1-.54492-.54443.52019.52019,0,0,1,.54492-.51856h.65332a1.13748,1.13748,0,0,0,1.14649-1.147V12.21875a1.13789,1.13789,0,0,0-1.14649-1.14746h-.65332a.52058.52058,0,0,1-.54492-.519.5263.5263,0,0,1,.54492-.54493h6.22754v3.79346a6.59289,6.59289,0,0,1,6.07031-4.10351,4.50406,4.50406,0,0,1,4.91895,4.27246,6.65879,6.65879,0,0,1,6.168-4.27295c3.09472,0,5.01562,1.85205,5.01562,5.15625v9.17724a1.13778,1.13778,0,0,0,1.14649,1.147h.65332Z" style="fill: #e5e7ea"/>
    <path d="M350.22852,17.22266c0,.707-.375.8833-1.1709.8833H337.85449c0,3.98291,1.61426,7.12939,5.29,7.12939a6.07243,6.07243,0,0,0,5.77442-3.98926c.167-.39453.34277-.48291.54492-.48291.35254,0,.45117.26416.44043.5127a7.43646,7.43646,0,0,1-7.43848,5.32715c-4.79492,0-9.16113-2.61719-9.16113-8.50684,0-4.80371,2.999-8.41943,8.76758-8.41943,5.38867,0,8.15527,3.10644,8.15527,7.54541ZM345.8291,17.147c-.10449-4.44385-1.46387-6.47412-3.94531-6.47412-2.33984,0-3.82227,2.38819-4.00586,6.47412Z" style="fill: #e5e7ea"/>
    <path d="M361.28418,10.21c0,4.30078,6.86328,5.98389,6.86328,10.89649,0,3.54-3.87988,5.49658-7.9834,5.49658-3.82812,0-7.45605-1.82959-7.45605-5.52393a2.0712,2.0712,0,0,1,1.92578-2.26611l4.64844-7.93213a13.43552,13.43552,0,0,1,1.249-2.26074c.22949-.34131.48926-.54834.69434-.54834a.46377.46377,0,0,1,.50976.48633,4.66364,4.66364,0,0,0-.45019,1.65185ZM359.667,25.57129c2.77442,0,4.34961-1.29932,4.34961-3.38721,0-3.02-4.99219-4.3125-5.26269-8.42041l-3.085,5.32422a1.55,1.55,0,0,1,.80957,1.438c0,1.14795-1.34766,1.61474-1.34766,2.63525,0,1.3711,2.17578,2.41016,4.53711,2.41016Z" style="fill: #e5e7ea"/>
  </g>
</svg>
