<svg id="Layer_1" data-name="Layer 1" xmlns="http://www.w3.org/2000/svg" viewBox="0 0 41.40039 23.7207">
  <g>
    <path d="M18.15723,0V6.38379a.5263.5263,0,0,1-.54493.54492.52048.52048,0,0,1-.51855-.54492V5.78271c0-2.48339-1.47656-4.71875-4.42773-4.71875H8.54883A1.08231,1.08231,0,0,0,7.40625,2.083v8.73681h1.665c2.71094,0,3.66894-.96582,3.66894-3.21386V7.44482a.54493.54493,0,0,1,1.08985,0v7.86573a.54758.54758,0,1,1-1.08985-.07862v-.17138c0-2.10743-.90625-3.12549-3.66894-3.12549h-1.665v9.69238a1.08337,1.08337,0,0,0,1.1416,1.02979h1.63867a.52591.52591,0,0,1,.54493.54443.52058.52058,0,0,1-.54493.519H.5498a.5263.5263,0,0,1-.54492-.54492.52019.52019,0,0,1,.54492-.51855h.65332a1.07729,1.07729,0,0,0,1.14161-1.019L2.33984,2.09326A1.07958,1.07958,0,0,0,1.19824,1.064H.54492A.52058.52058,0,0,1,0,.54492.52631.52631,0,0,1,.54492,0Z" style="fill: #ee4343"/>
    <path d="M41.40039,6.96436c0,4.2832-3.23047,7.53173-9.77051,7.53173H28.32324v7.13135a1.08337,1.08337,0,0,0,1.1416,1.02979H31.0332a.5259.5259,0,0,1,.54492.54443.52057.52057,0,0,1-.54492.519H21.4668a.52629.52629,0,0,1-.54492-.54492.52018.52018,0,0,1,.54492-.51855h.65234a1.07667,1.07667,0,0,0,1.1416-1.019L23.25586,2.09326a1.07959,1.07959,0,0,0-1.1416-1.0293h-.65235a.52058.52058,0,0,1-.54492-.519A.52631.52631,0,0,1,21.46191,0H31.627c6.54,0,9.77149,3.041,9.77149,6.96436ZM30.5127,13.43213c3.54589,0,5.42285-2.58057,5.42285-6.46777,0-3.27588-1.5166-5.90088-5.42285-5.90088H29.46484a1.0817,1.0817,0,0,0-1.1416,1.019V13.43213Z" style="fill: #e5e7ea"/>
  </g>
</svg>
